<mxfile host="app.diagrams.net" modified="2023-03-13T08:40:48.519Z" agent="5.0 (Windows NT 10.0; Win64; x64) AppleWebKit/537.36 (KHTML, like Gecko) Chrome/110.0.0.0 Safari/537.36" etag="ieTvVG-CFBMo210K4hRO" version="20.8.10" type="github">
  <diagram name="第 1 页" id="7OnXvsA5R5d6FDzevD2J">
    <mxGraphModel dx="794" dy="508" grid="1" gridSize="10" guides="1" tooltips="1" connect="1" arrows="1" fold="1" page="1" pageScale="1" pageWidth="827" pageHeight="1169" math="0" shadow="0">
      <root>
        <mxCell id="0" />
        <mxCell id="1" parent="0" />
        <mxCell id="oyMJ-tuS_vlnKStF2W_l-5" value="" style="rounded=1;whiteSpace=wrap;html=1;fillColor=#ffe6cc;strokeColor=none;fillStyle=auto;gradientColor=#FFB366;glass=0;shadow=0;" vertex="1" parent="1">
          <mxGeometry x="170" y="130" width="120" height="60" as="geometry" />
        </mxCell>
      </root>
    </mxGraphModel>
  </diagram>
</mxfile>
